<?xml version="1.0" encoding="UTF-8" standalone="no"?>
<svg
   xmlns:ooo="http://xml.openoffice.org/svg/export"
   xmlns:dc="http://purl.org/dc/elements/1.1/"
   xmlns:cc="http://creativecommons.org/ns#"
   xmlns:rdf="http://www.w3.org/1999/02/22-rdf-syntax-ns#"
   xmlns:svg="http://www.w3.org/2000/svg"
   xmlns="http://www.w3.org/2000/svg"
   xmlns:sodipodi="http://sodipodi.sourceforge.net/DTD/sodipodi-0.dtd"
   xmlns:inkscape="http://www.inkscape.org/namespaces/inkscape"
   version="1.2"
   width="279.4mm"
   height="215.9mm"
   viewBox="0 0 27940 21590"
   preserveAspectRatio="xMidYMid"
   fill-rule="evenodd"
   clip-path="url(#presentation_clip_path)"
   stroke-width="28.222"
   stroke-linejoin="round"
   xml:space="preserve"
   id="svg2"
   inkscape:version="0.48.4 r9939"
   sodipodi:docname="preimage-arrow-diagram.svg"><metadata
     id="metadata263"><rdf:RDF><cc:Work
         rdf:about=""><dc:format>image/svg+xml</dc:format><dc:type
           rdf:resource="http://purl.org/dc/dcmitype/StillImage" /><dc:title></dc:title></cc:Work></rdf:RDF></metadata><sodipodi:namedview
     pagecolor="#ffffff"
     bordercolor="#666666"
     borderopacity="1"
     objecttolerance="10"
     gridtolerance="10"
     guidetolerance="10"
     inkscape:pageopacity="0"
     inkscape:pageshadow="2"
     inkscape:window-width="1045"
     inkscape:window-height="1024"
     id="namedview261"
     showgrid="false"
     inkscape:zoom="0.83424315"
     inkscape:cx="507.52728"
     inkscape:cy="410.86761"
     inkscape:window-x="49"
     inkscape:window-y="24"
     inkscape:window-maximized="0"
     inkscape:current-layer="svg2" /><defs
     class="ClipPathGroup"
     id="defs4"><clipPath
       id="presentation_clip_path"
       clipPathUnits="userSpaceOnUse"><rect
         x="0"
         y="0"
         width="27940"
         height="21590"
         id="rect7" /></clipPath></defs><defs
     class="TextShapeIndex"
     id="defs9"><g
       ooo:slide="id1"
       ooo:id-list="id3 id4 id5 id6 id7 id8 id9 id10 id11 id12 id13 id14 id15 id16 id17"
       id="g11" /></defs><defs
     class="EmbeddedBulletChars"
     id="defs13"><g
       id="bullet-char-template(57356)"
       transform="scale(0.00048828125,-0.00048828125)"><path
         d="M 580,1141 L 1163,571 580,0 -4,571 580,1141 Z"
         id="path16" /></g><g
       id="bullet-char-template(57354)"
       transform="scale(0.00048828125,-0.00048828125)"><path
         d="M 8,1128 L 1137,1128 1137,0 8,0 8,1128 Z"
         id="path19" /></g><g
       id="bullet-char-template(10146)"
       transform="scale(0.00048828125,-0.00048828125)"><path
         d="M 174,0 L 602,739 174,1481 1456,739 174,0 Z M 1358,739 L 309,1346 659,739 1358,739 Z"
         id="path22" /></g><g
       id="bullet-char-template(10132)"
       transform="scale(0.00048828125,-0.00048828125)"><path
         d="M 2015,739 L 1276,0 717,0 1260,543 174,543 174,936 1260,936 717,1481 1274,1481 2015,739 Z"
         id="path25" /></g><g
       id="bullet-char-template(10007)"
       transform="scale(0.00048828125,-0.00048828125)"><path
         d="M 0,-2 C -7,14 -16,27 -25,37 L 356,567 C 262,823 215,952 215,954 215,979 228,992 255,992 264,992 276,990 289,987 310,991 331,999 354,1012 L 381,999 492,748 772,1049 836,1024 860,1049 C 881,1039 901,1025 922,1006 886,937 835,863 770,784 769,783 710,716 594,584 L 774,223 C 774,196 753,168 711,139 L 727,119 C 717,90 699,76 672,76 641,76 570,178 457,381 L 164,-76 C 142,-110 111,-127 72,-127 30,-127 9,-110 8,-76 1,-67 -2,-52 -2,-32 -2,-23 -1,-13 0,-2 Z"
         id="path28" /></g><g
       id="bullet-char-template(10004)"
       transform="scale(0.00048828125,-0.00048828125)"><path
         d="M 285,-33 C 182,-33 111,30 74,156 52,228 41,333 41,471 41,549 55,616 82,672 116,743 169,778 240,778 293,778 328,747 346,684 L 369,508 C 377,444 397,411 428,410 L 1163,1116 C 1174,1127 1196,1133 1229,1133 1271,1133 1292,1118 1292,1087 L 1292,965 C 1292,929 1282,901 1262,881 L 442,47 C 390,-6 338,-33 285,-33 Z"
         id="path31" /></g><g
       id="bullet-char-template(9679)"
       transform="scale(0.00048828125,-0.00048828125)"><path
         d="M 813,0 C 632,0 489,54 383,161 276,268 223,411 223,592 223,773 276,916 383,1023 489,1130 632,1184 813,1184 992,1184 1136,1130 1245,1023 1353,916 1407,772 1407,592 1407,412 1353,268 1245,161 1136,54 992,0 813,0 Z"
         id="path34" /></g><g
       id="bullet-char-template(8226)"
       transform="scale(0.00048828125,-0.00048828125)"><path
         d="M 346,457 C 273,457 209,483 155,535 101,586 74,649 74,723 74,796 101,859 155,911 209,963 273,989 346,989 419,989 480,963 531,910 582,859 608,796 608,723 608,648 583,586 532,535 482,483 420,457 346,457 Z"
         id="path37" /></g><g
       id="bullet-char-template(8211)"
       transform="scale(0.00048828125,-0.00048828125)"><path
         d="M -4,459 L 1135,459 1135,606 -4,606 -4,459 Z"
         id="path40" /></g></defs><defs
     class="TextEmbeddedBitmaps"
     id="defs42" /><g
     id="g44"
     inkscape:export-filename="/home/neil/Documents/PLT/public-writing/dissertation/figures/preimage-arrow-diagram.png"
     inkscape:export-xdpi="150"
     inkscape:export-ydpi="150"><g
       id="id2"
       class="Master_Slide"><g
         id="bg-id2"
         class="Background" /><g
         id="bo-id2"
         class="BackgroundObjects" /></g></g><g
     class="SlideGroup"
     id="g49"
     inkscape:export-filename="/home/neil/Documents/PLT/public-writing/dissertation/figures/preimage-arrow-diagram.png"
     inkscape:export-xdpi="150"
     inkscape:export-ydpi="150"><g
       id="g51"><g
         id="id1"
         class="Slide"
         clip-path="url(#presentation_clip_path)"><g
           class="Page"
           id="g54"><g
             class="com.sun.star.drawing.CustomShape"
             id="g56"><g
               id="id3"><path
                 fill="rgb(255,255,255)"
                 stroke="none"
                 d="M 19050,3810 L 17780,3810 17780,1270 20320,1270 20320,3810 19050,3810 Z"
                 id="path59" /><path
                 fill="none"
                 stroke="rgb(0,0,0)"
                 stroke-width="51"
                 d="M 19050,3810 L 17780,3810 17780,1270 20320,1270 20320,3810 19050,3810 Z"
                 id="path61" /><text
                 class="TextShape"
                 id="text63"><tspan
                   class="TextParagraph"
                   font-family="Arial, sans-serif"
                   font-size="635px"
                   font-weight="400"
                   id="tspan65"><tspan
                     class="TextPosition"
                     x="18875"
                     y="2761"
                     id="tspan67"><tspan
                       fill="rgb(0,0,0)"
                       stroke="none"
                       id="tspan69">h</tspan></tspan></tspan></text>
</g></g><g
             class="com.sun.star.drawing.CustomShape"
             id="g71"><g
               id="id4"><path
                 fill="rgb(255,255,255)"
                 stroke="none"
                 d="M 19050,10160 L 17780,10160 17780,7620 20320,7620 20320,10160 19050,10160 Z"
                 id="path74" /><path
                 fill="none"
                 stroke="rgb(0,0,0)"
                 stroke-width="51"
                 d="M 19050,10160 L 17780,10160 17780,7620 20320,7620 20320,10160 19050,10160 Z"
                 id="path76" /><text
                 class="TextShape"
                 id="text78"><tspan
                   class="TextParagraph"
                   font-family="Arial, sans-serif"
                   font-size="635px"
                   font-weight="400"
                   id="tspan80"><tspan
                     class="TextPosition"
                     x="18593"
                     y="9111"
                     id="tspan82"><tspan
                       fill="rgb(0,0,0)"
                       stroke="none"
                       id="tspan84">pre</tspan></tspan></tspan></text>
</g></g><g
             class="com.sun.star.drawing.LineShape"
             id="g86"><g
               id="id5"><path
                 fill="none"
                 stroke="rgb(0,0,0)"
                 stroke-width="51"
                 d="M 13970,2540 L 17234,2540"
                 id="path89" /><path
                 fill="rgb(0,0,0)"
                 stroke="none"
                 d="M 17780,2540 L 17209,2350 17209,2731 17780,2540 Z"
                 id="path91" /><text
                 class="TextShape"
                 id="text93"><tspan
                   class="TextParagraph"
                   font-family="Arial, sans-serif"
                   font-size="635px"
                   font-weight="400"
                   id="tspan95"><tspan
                     class="TextPosition"
                     x="15098"
                     y="2050"
                     id="tspan97"><tspan
                       fill="rgb(0,0,0)"
                       stroke="none"
                       id="tspan99">Set X</tspan></tspan></tspan></text>
</g></g><g
             class="com.sun.star.drawing.LineShape"
             id="g101"><g
               id="id6"><path
                 fill="none"
                 stroke="rgb(0,0,0)"
                 stroke-width="51"
                 d="M 20866,9398 L 25400,9398"
                 id="path104" /><path
                 fill="rgb(0,0,0)"
                 stroke="none"
                 d="M 20320,9398 L 20892,9589 20892,9208 20320,9398 Z"
                 id="path106" /><text
                 class="TextShape"
                 id="text108"><tspan
                   class="TextParagraph"
                   font-family="Arial, sans-serif"
                   font-size="635px"
                   font-weight="400"
                   id="tspan110"><tspan
                     class="TextPosition"
                     x="22092"
                     y="10330"
                     id="tspan112"><tspan
                       fill="rgb(0,0,0)"
                       stroke="none"
                       id="tspan114">Set Y</tspan></tspan></tspan></text>
</g></g><g
             class="com.sun.star.drawing.LineShape"
             id="g116"><g
               id="id7"><path
                 fill="none"
                 stroke="rgb(0,0,0)"
                 stroke-width="51"
                 d="M 14516,8890 L 17780,8890"
                 id="path119" /><path
                 fill="rgb(0,0,0)"
                 stroke="none"
                 d="M 13970,8890 L 14542,9081 14542,8700 13970,8890 Z"
                 id="path121" /><text
                 class="TextShape"
                 id="text123"><tspan
                   class="TextParagraph"
                   font-family="Arial, sans-serif"
                   font-size="635px"
                   font-weight="400"
                   id="tspan125"><tspan
                     class="TextPosition"
                     x="15098"
                     y="9822"
                     id="tspan127"><tspan
                       fill="rgb(0,0,0)"
                       stroke="none"
                       id="tspan129">Set X</tspan></tspan></tspan></text>
</g></g><g
             class="com.sun.star.drawing.TextShape"
             id="g131"><g
               id="id8"><text
                 class="TextShape"
                 id="text134"><tspan
                   class="TextParagraph"
                   font-family="Arial, sans-serif"
                   font-size="635px"
                   font-weight="400"
                   id="tspan136"><tspan
                     class="TextPosition"
                     x="20559"
                     y="3622"
                     id="tspan138"><tspan
                       fill="rgb(0,0,0)"
                       stroke="none"
                       id="tspan140">Set Y ⇒ Set X</tspan></tspan></tspan></text>
</g></g><g
             class="com.sun.star.drawing.ConnectorShape"
             id="g142"><g
               id="id9"><path
                 fill="none"
                 stroke="rgb(0,0,0)"
                 stroke-width="51"
                 d="M 20320,2286 L 25400,2286 25400,8890 20866,8890"
                 id="path145" /><path
                 fill="rgb(0,0,0)"
                 stroke="none"
                 d="M 20320,8890 L 20892,9081 20892,8700 20320,8890 Z"
                 id="path147" /></g></g><g
             class="com.sun.star.drawing.TextShape"
             id="g149"><g
               id="id10"><text
                 class="TextShape"
                 id="text152"><tspan
                   class="TextParagraph"
                   font-family="Arial, sans-serif"
                   font-size="635px"
                   font-weight="400"
                   id="tspan154"><tspan
                     class="TextPosition"
                     x="20570"
                     y="1971"
                     id="tspan156"><tspan
                       fill="rgb(0,0,0)"
                       stroke="none"
                       id="tspan158">Set Y</tspan></tspan></tspan></text>
</g></g><g
             class="com.sun.star.drawing.CustomShape"
             id="g160"><g
               id="id11"><path
                 fill="rgb(255,255,255)"
                 stroke="none"
                 d="M 6350,8890 L 5080,8890 5080,6350 7620,6350 7620,8890 6350,8890 Z"
                 id="path163" /><path
                 fill="none"
                 stroke="rgb(0,0,0)"
                 stroke-width="51"
                 d="M 6350,8890 L 5080,8890 5080,6350 7620,6350 7620,8890 6350,8890 Z"
                 id="path165" /><text
                 class="TextShape"
                 id="text167"><tspan
                   class="TextParagraph"
                   font-family="Arial, sans-serif"
                   font-size="635px"
                   font-weight="400"
                   id="tspan169"><tspan
                     class="TextPosition"
                     x="6175"
                     y="7841"
                     id="tspan171"><tspan
                       fill="rgb(0,0,0)"
                       stroke="none"
                       id="tspan173">g</tspan></tspan></tspan></text>
</g></g><g
             class="com.sun.star.drawing.LineShape"
             id="g175"><g
               id="id12"><path
                 fill="none"
                 stroke="rgb(0,0,0)"
                 stroke-width="51"
                 d="M 1270,7620 L 4534,7620"
                 id="path178" /><path
                 fill="rgb(0,0,0)"
                 stroke="none"
                 d="M 5080,7620 L 4509,7430 4509,7811 5080,7620 Z"
                 id="path180" /><text
                 class="TextShape"
                 id="text182"><tspan
                   class="TextParagraph"
                   font-family="Arial, sans-serif"
                   font-size="635px"
                   font-weight="400"
                   id="tspan184"><tspan
                     class="TextPosition"
                     x="2398"
                     y="7130"
                     id="tspan186"><tspan
                       fill="rgb(0,0,0)"
                       stroke="none"
                       id="tspan188">Set X</tspan></tspan></tspan></text>
</g></g><g
             class="com.sun.star.drawing.LineShape"
             id="g190"><g
               id="id13"><path
                 fill="none"
                 stroke="rgb(0,0,0)"
                 stroke-width="51"
                 d="M 7620,7620 L 10884,7620"
                 id="path193" /><path
                 fill="rgb(0,0,0)"
                 stroke="none"
                 d="M 11430,7620 L 10859,7430 10859,7811 11430,7620 Z"
                 id="path195" /><text
                 class="TextShape"
                 id="text197"><tspan
                   class="TextParagraph"
                   font-family="Arial, sans-serif"
                   font-size="635px"
                   font-weight="400"
                   id="tspan199"><tspan
                     class="TextPosition"
                     x="8666"
                     y="7130"
                     id="tspan201"><tspan
                       fill="rgb(0,0,0)"
                       stroke="none"
                       id="tspan203">X ⇀ Y</tspan></tspan></tspan></text>
</g></g><g
             class="com.sun.star.drawing.CustomShape"
             id="g205"><g
               id="id14"><path
                 fill="rgb(255,255,255)"
                 stroke="none"
                 d="M 6350,5080 L 5080,5080 5080,2540 7620,2540 7620,5080 6350,5080 Z"
                 id="path208" /><path
                 fill="none"
                 stroke="rgb(0,0,0)"
                 stroke-width="51"
                 d="M 6350,5080 L 5080,5080 5080,2540 7620,2540 7620,5080 6350,5080 Z"
                 id="path210" /><text
                 class="TextShape"
                 id="text212"><tspan
                   class="TextParagraph"
                   font-family="Arial, sans-serif"
                   font-size="635px"
                   font-weight="400"
                   id="tspan214"><tspan
                     class="TextPosition"
                     x="6261"
                     y="4031"
                     id="tspan216"><tspan
                       fill="rgb(0,0,0)"
                       stroke="none"
                       id="tspan218">f</tspan></tspan></tspan></text>
</g></g><g
             class="com.sun.star.drawing.LineShape"
             id="g220"><g
               id="id15"><path
                 fill="none"
                 stroke="rgb(0,0,0)"
                 stroke-width="51"
                 d="M 1270,3810 L 4534,3810"
                 id="path223" /><path
                 fill="rgb(0,0,0)"
                 stroke="none"
                 d="M 5080,3810 L 4509,3620 4509,4001 5080,3810 Z"
                 id="path225" /><text
                 class="TextShape"
                 id="text227"><tspan
                   class="TextParagraph"
                   font-family="Arial, sans-serif"
                   font-size="635px"
                   font-weight="400"
                   id="tspan229"><tspan
                     class="TextPosition"
                     x="2964"
                     y="3320"
                     id="tspan231"><tspan
                       fill="rgb(0,0,0)"
                       stroke="none"
                       id="tspan233">X</tspan></tspan></tspan></text>
</g></g><g
             class="com.sun.star.drawing.LineShape"
             id="g235"><g
               id="id16"><path
                 fill="none"
                 stroke="rgb(0,0,0)"
                 stroke-width="51"
                 d="M 7620,3810 L 10884,3810"
                 id="path238" /><path
                 fill="rgb(0,0,0)"
                 stroke="none"
                 d="M 11430,3810 L 10859,3620 10859,4001 11430,3810 Z"
                 id="path240" /><text
                 class="TextShape"
                 id="text242"><tspan
                   class="TextParagraph"
                   font-family="Arial, sans-serif"
                   font-size="368px"
                   font-weight="400"
                   id="tspan244"><tspan
                     class="TextPosition"
                     x="9153"
                     y="3298"
                     id="tspan246"><tspan
                       font-size="635px"
                       fill="rgb(0,0,0)"
                       stroke="none"
                       id="tspan248">Y</tspan></tspan><tspan
                     class="TextPosition"
                     y="3399"
                     id="tspan250"><tspan
                       fill="rgb(0,0,0)"
                       stroke="none"
                       id="tspan252">⊥</tspan></tspan></tspan></text>
</g></g><g
             class="com.sun.star.drawing.ConnectorShape"
             id="g254"><g
               id="id17"><path
                 fill="none"
                 stroke="rgb(0,0,0)"
                 stroke-width="51"
                 d="M 20320,2794 L 24892,2794 24892,8382 20866,8382"
                 id="path257" /><path
                 fill="rgb(0,0,0)"
                 stroke="none"
                 d="M 20320,8382 L 20892,8573 20892,8192 20320,8382 Z"
                 id="path259" /></g></g></g></g></g></g></svg>